<mxfile host="app.diagrams.net" agent="Mozilla/5.0 (Windows NT 10.0; Win64; x64; rv:129.0) Gecko/20100101 Firefox/129.0" version="24.7.6">
  <diagram id="C5RBs43oDa-KdzZeNtuy" name="Page-1">
    <mxGraphModel dx="1434" dy="745" grid="1" gridSize="10" guides="1" tooltips="1" connect="1" arrows="1" fold="1" page="0" pageScale="1" pageWidth="827" pageHeight="1169" math="0" shadow="0">
      <root>
        <mxCell id="WIyWlLk6GJQsqaUBKTNV-0" />
        <mxCell id="WIyWlLk6GJQsqaUBKTNV-1" parent="WIyWlLk6GJQsqaUBKTNV-0" />
        <mxCell id="WIyWlLk6GJQsqaUBKTNV-2" value="" style="rounded=0;html=1;jettySize=auto;orthogonalLoop=1;fontSize=11;endArrow=block;endFill=0;endSize=8;strokeWidth=1;shadow=0;labelBackgroundColor=none;edgeStyle=orthogonalEdgeStyle;" parent="WIyWlLk6GJQsqaUBKTNV-1" source="WIyWlLk6GJQsqaUBKTNV-3" target="WIyWlLk6GJQsqaUBKTNV-6" edge="1">
          <mxGeometry relative="1" as="geometry" />
        </mxCell>
        <mxCell id="WIyWlLk6GJQsqaUBKTNV-3" value="Look at choices" style="rounded=1;whiteSpace=wrap;html=1;fontSize=12;glass=0;strokeWidth=1;shadow=0;" parent="WIyWlLk6GJQsqaUBKTNV-1" vertex="1">
          <mxGeometry x="330" y="130" width="130" height="50" as="geometry" />
        </mxCell>
        <mxCell id="2MbHbxxGn7zVGhpDCjre-4" value="" style="edgeStyle=orthogonalEdgeStyle;rounded=0;orthogonalLoop=1;jettySize=auto;html=1;" edge="1" parent="WIyWlLk6GJQsqaUBKTNV-1" source="2MbHbxxGn7zVGhpDCjre-27" target="2MbHbxxGn7zVGhpDCjre-3">
          <mxGeometry relative="1" as="geometry" />
        </mxCell>
        <mxCell id="2MbHbxxGn7zVGhpDCjre-13" value="" style="edgeStyle=orthogonalEdgeStyle;rounded=0;orthogonalLoop=1;jettySize=auto;html=1;entryX=0;entryY=0;entryDx=0;entryDy=0;" edge="1" parent="WIyWlLk6GJQsqaUBKTNV-1" source="2MbHbxxGn7zVGhpDCjre-24" target="2MbHbxxGn7zVGhpDCjre-9">
          <mxGeometry relative="1" as="geometry" />
        </mxCell>
        <mxCell id="2MbHbxxGn7zVGhpDCjre-33" style="edgeStyle=orthogonalEdgeStyle;rounded=0;orthogonalLoop=1;jettySize=auto;html=1;exitX=0;exitY=1;exitDx=0;exitDy=0;entryX=0.5;entryY=0;entryDx=0;entryDy=0;" edge="1" parent="WIyWlLk6GJQsqaUBKTNV-1" source="WIyWlLk6GJQsqaUBKTNV-6" target="2MbHbxxGn7zVGhpDCjre-24">
          <mxGeometry relative="1" as="geometry" />
        </mxCell>
        <mxCell id="2MbHbxxGn7zVGhpDCjre-35" style="edgeStyle=orthogonalEdgeStyle;rounded=0;orthogonalLoop=1;jettySize=auto;html=1;exitX=1;exitY=1;exitDx=0;exitDy=0;entryX=0.5;entryY=0;entryDx=0;entryDy=0;" edge="1" parent="WIyWlLk6GJQsqaUBKTNV-1" source="WIyWlLk6GJQsqaUBKTNV-6" target="2MbHbxxGn7zVGhpDCjre-30">
          <mxGeometry relative="1" as="geometry" />
        </mxCell>
        <mxCell id="WIyWlLk6GJQsqaUBKTNV-6" value="Choose between an Espresso, Latte, or Cappuccino" style="rhombus;whiteSpace=wrap;html=1;shadow=0;fontFamily=Helvetica;fontSize=12;align=center;strokeWidth=1;spacing=6;spacingTop=-4;" parent="WIyWlLk6GJQsqaUBKTNV-1" vertex="1">
          <mxGeometry x="306.25" y="210" width="177.5" height="130" as="geometry" />
        </mxCell>
        <mxCell id="2MbHbxxGn7zVGhpDCjre-1" value="" style="edgeStyle=orthogonalEdgeStyle;rounded=0;orthogonalLoop=1;jettySize=auto;html=1;" edge="1" parent="WIyWlLk6GJQsqaUBKTNV-1" source="2MbHbxxGn7zVGhpDCjre-0" target="WIyWlLk6GJQsqaUBKTNV-3">
          <mxGeometry relative="1" as="geometry" />
        </mxCell>
        <mxCell id="2MbHbxxGn7zVGhpDCjre-0" value="Turn on coffee machine" style="ellipse;whiteSpace=wrap;html=1;" vertex="1" parent="WIyWlLk6GJQsqaUBKTNV-1">
          <mxGeometry x="335" y="20" width="120" height="70" as="geometry" />
        </mxCell>
        <mxCell id="2MbHbxxGn7zVGhpDCjre-10" style="edgeStyle=orthogonalEdgeStyle;rounded=0;orthogonalLoop=1;jettySize=auto;html=1;exitX=0.5;exitY=1;exitDx=0;exitDy=0;entryX=1;entryY=0.5;entryDx=0;entryDy=0;" edge="1" parent="WIyWlLk6GJQsqaUBKTNV-1" source="2MbHbxxGn7zVGhpDCjre-3">
          <mxGeometry relative="1" as="geometry">
            <mxPoint x="664.375" y="306.25" as="sourcePoint" />
            <mxPoint x="483.75" y="493.75" as="targetPoint" />
            <Array as="points">
              <mxPoint x="709" y="494" />
            </Array>
          </mxGeometry>
        </mxCell>
        <mxCell id="2MbHbxxGn7zVGhpDCjre-12" value="Want milk" style="edgeLabel;html=1;align=center;verticalAlign=middle;resizable=0;points=[];" vertex="1" connectable="0" parent="2MbHbxxGn7zVGhpDCjre-10">
          <mxGeometry x="0.1897" y="1" relative="1" as="geometry">
            <mxPoint x="-1" as="offset" />
          </mxGeometry>
        </mxCell>
        <mxCell id="2MbHbxxGn7zVGhpDCjre-19" value="" style="edgeStyle=orthogonalEdgeStyle;rounded=0;orthogonalLoop=1;jettySize=auto;html=1;" edge="1" parent="WIyWlLk6GJQsqaUBKTNV-1" source="2MbHbxxGn7zVGhpDCjre-3" target="2MbHbxxGn7zVGhpDCjre-18">
          <mxGeometry relative="1" as="geometry" />
        </mxCell>
        <mxCell id="2MbHbxxGn7zVGhpDCjre-20" value="No" style="edgeLabel;html=1;align=center;verticalAlign=middle;resizable=0;points=[];" vertex="1" connectable="0" parent="2MbHbxxGn7zVGhpDCjre-19">
          <mxGeometry x="0.008" y="-1" relative="1" as="geometry">
            <mxPoint as="offset" />
          </mxGeometry>
        </mxCell>
        <mxCell id="2MbHbxxGn7zVGhpDCjre-32" value="Don&#39;t want milk" style="edgeLabel;html=1;align=center;verticalAlign=middle;resizable=0;points=[];" vertex="1" connectable="0" parent="2MbHbxxGn7zVGhpDCjre-19">
          <mxGeometry x="0.0689" y="-1" relative="1" as="geometry">
            <mxPoint as="offset" />
          </mxGeometry>
        </mxCell>
        <mxCell id="2MbHbxxGn7zVGhpDCjre-3" value="&lt;div&gt;Decide whether&lt;/div&gt;&lt;div&gt;&amp;nbsp;or not you want milk&lt;/div&gt;" style="rhombus;whiteSpace=wrap;html=1;shadow=0;fontFamily=Helvetica;fontSize=12;align=center;strokeWidth=1;spacing=6;spacingTop=-4;" vertex="1" parent="WIyWlLk6GJQsqaUBKTNV-1">
          <mxGeometry x="620" y="210" width="177.5" height="130" as="geometry" />
        </mxCell>
        <mxCell id="2MbHbxxGn7zVGhpDCjre-23" value="" style="edgeStyle=orthogonalEdgeStyle;rounded=0;orthogonalLoop=1;jettySize=auto;html=1;" edge="1" parent="WIyWlLk6GJQsqaUBKTNV-1" source="2MbHbxxGn7zVGhpDCjre-9" target="2MbHbxxGn7zVGhpDCjre-22">
          <mxGeometry relative="1" as="geometry" />
        </mxCell>
        <mxCell id="2MbHbxxGn7zVGhpDCjre-9" value="&lt;div&gt;Choose what&lt;/div&gt;&lt;div&gt;&amp;nbsp;kind of milk you want;&lt;/div&gt;&lt;div&gt;&amp;nbsp;Whole milk,&amp;nbsp;&lt;/div&gt;&lt;div&gt;Skim Milk,&amp;nbsp;&lt;/div&gt;&lt;div&gt;or almond milk.&lt;br&gt;&lt;/div&gt;" style="rhombus;whiteSpace=wrap;html=1;shadow=0;fontFamily=Helvetica;fontSize=12;align=center;strokeWidth=1;spacing=6;spacingTop=-4;" vertex="1" parent="WIyWlLk6GJQsqaUBKTNV-1">
          <mxGeometry x="306.25" y="430" width="177.5" height="130" as="geometry" />
        </mxCell>
        <mxCell id="2MbHbxxGn7zVGhpDCjre-18" value="Wait for machine to pour cofee" style="rounded=1;whiteSpace=wrap;html=1;" vertex="1" parent="WIyWlLk6GJQsqaUBKTNV-1">
          <mxGeometry x="950" y="245" width="120" height="60" as="geometry" />
        </mxCell>
        <mxCell id="2MbHbxxGn7zVGhpDCjre-22" value="Wait for milk to be steamed" style="rounded=1;whiteSpace=wrap;html=1;" vertex="1" parent="WIyWlLk6GJQsqaUBKTNV-1">
          <mxGeometry x="335" y="640" width="120" height="60" as="geometry" />
        </mxCell>
        <mxCell id="2MbHbxxGn7zVGhpDCjre-24" value="Choose Latte" style="rounded=1;whiteSpace=wrap;html=1;" vertex="1" parent="WIyWlLk6GJQsqaUBKTNV-1">
          <mxGeometry x="270" y="380" width="110" height="40" as="geometry" />
        </mxCell>
        <mxCell id="2MbHbxxGn7zVGhpDCjre-27" value="" style="rounded=1;whiteSpace=wrap;html=1;" vertex="1" parent="WIyWlLk6GJQsqaUBKTNV-1">
          <mxGeometry x="500" y="255" width="90" height="40" as="geometry" />
        </mxCell>
        <mxCell id="2MbHbxxGn7zVGhpDCjre-28" value="" style="edgeStyle=orthogonalEdgeStyle;rounded=0;orthogonalLoop=1;jettySize=auto;html=1;" edge="1" parent="WIyWlLk6GJQsqaUBKTNV-1" source="WIyWlLk6GJQsqaUBKTNV-6" target="2MbHbxxGn7zVGhpDCjre-27">
          <mxGeometry relative="1" as="geometry">
            <mxPoint x="484" y="275" as="sourcePoint" />
            <mxPoint x="620" y="275" as="targetPoint" />
          </mxGeometry>
        </mxCell>
        <mxCell id="2MbHbxxGn7zVGhpDCjre-29" value="Choose espresso" style="edgeLabel;html=1;align=center;verticalAlign=middle;resizable=0;points=[];" vertex="1" connectable="0" parent="2MbHbxxGn7zVGhpDCjre-28">
          <mxGeometry x="-0.1303" y="-4" relative="1" as="geometry">
            <mxPoint x="49" y="4" as="offset" />
          </mxGeometry>
        </mxCell>
        <mxCell id="2MbHbxxGn7zVGhpDCjre-36" style="edgeStyle=orthogonalEdgeStyle;rounded=0;orthogonalLoop=1;jettySize=auto;html=1;exitX=0.5;exitY=1;exitDx=0;exitDy=0;entryX=1;entryY=0;entryDx=0;entryDy=0;" edge="1" parent="WIyWlLk6GJQsqaUBKTNV-1" source="2MbHbxxGn7zVGhpDCjre-30" target="2MbHbxxGn7zVGhpDCjre-9">
          <mxGeometry relative="1" as="geometry" />
        </mxCell>
        <mxCell id="2MbHbxxGn7zVGhpDCjre-30" value="Choose Cappuccino" style="rounded=1;whiteSpace=wrap;html=1;" vertex="1" parent="WIyWlLk6GJQsqaUBKTNV-1">
          <mxGeometry x="420" y="380" width="110" height="40" as="geometry" />
        </mxCell>
      </root>
    </mxGraphModel>
  </diagram>
</mxfile>
